<svg width="21" height="21" viewBox="0 0 21 21" fill="none" xmlns="http://www.w3.org/2000/svg">
<path d="M10.5 10.5L10.5 15.75" stroke="#44B21E" stroke-width="1.5" stroke-linecap="round" stroke-linejoin="round"/>
<path d="M13.125 14L10.5 15.75L7.875 14" stroke="#44B21E" stroke-width="1.5" stroke-linecap="round" stroke-linejoin="round"/>
<path d="M15.75 18.375H5.25C4.76675 18.375 4.375 17.9832 4.375 17.5L4.375 3.5C4.375 3.01675 4.76675 2.625 5.25 2.625L11.8677 2.625C12.1114 2.625 12.3441 2.72667 12.5097 2.90552L16.392 7.0984C16.5418 7.26015 16.625 7.47246 16.625 7.69289L16.625 17.5C16.625 17.9832 16.2333 18.375 15.75 18.375Z" stroke="#44B21E" stroke-width="1.5" stroke-linecap="round" stroke-linejoin="round"/>
<path d="M16.625 7.875L12.25 7.875C11.7668 7.875 11.375 7.48325 11.375 7L11.375 2.625" stroke="#44B21E" stroke-width="1.5" stroke-linecap="round" stroke-linejoin="round"/>
</svg>
